<svg width="191" height="36" fill="none" xmlns="http://www.w3.org/2000/svg"><path d="M179.211 7.856c4.83 0 7.918 3.944 7.918 9.954 0 6.39-2.953 10.302-7.918 10.302-4.863 0-7.983-3.975-7.983-10.112 0-6.138 3.049-10.144 7.983-10.144zm0-2.732c-6.834 0-11.126 5.052-11.126 12.845 0 7.887 4.324 12.907 11.126 12.907s11.062-5.06 11.062-12.876c0-7.855-4.26-12.876-11.062-12.876m-23.749 0c-6.612 0-10.967 5.116-10.967 12.845 0 7.919 4.355 12.907 11.189 12.907 5.662 0 8.33-3.563 9.439-6.707a1.57 1.57 0 00.095-.538c0-.665-.57-1.148-1.117-1.275a2.146 2.146 0 00-.633-.095c-.602 0-1.18.285-1.433.982-.824 2.542-2.637 4.83-6.454 4.83-4.767 0-7.919-3.943-7.919-10.073 0-6.263 3.144-10.112 7.919-10.112 3.627 0 5.21 1.877 6.169 4.165.285.602.791.824 1.338.824.259.006.517-.037.76-.127.475-.158.982-.601.982-1.275a1.568 1.568 0 00-.127-.633c-1.132-2.795-3.642-5.717-9.241-5.717M127.96 18.76h10.841c.76 0 1.243-.602 1.243-1.338 0-.792-.443-1.37-1.243-1.37H127.96v-6.58c0-.76.317-1.11 1.077-1.11h11.189c.823 0 1.275-.609 1.275-1.4 0-.793-.444-1.37-1.275-1.37h-12.021c-2.257 0-3.246.981-3.246 3.436v17.928c0 2.415.981 3.405 3.246 3.405h12.306c.824 0 1.275-.633 1.275-1.402 0-.791-.443-1.37-1.275-1.37h-11.379c-.697 0-1.172-.284-1.172-1.02V18.76zm-22.189-1.204v-8.14c0-.697.317-1.109 1.014-1.109h6.105c3.184 0 4.926 1.592 4.926 4.45 0 3.081-1.718 4.8-4.926 4.8h-7.119zm0 2.669h7.183c5.052 0 7.982-2.764 7.982-7.539 0-4.514-2.827-7.087-7.856-7.087h-7.055c-2.257 0-3.247.982-3.247 3.437v20.153c0 .919.602 1.37 1.497 1.37.855 0 1.496-.443 1.496-1.338v-8.996zM91.755 16.85c.855-2.161 2.415-6.707 3.017-8.742-.127 2.162-.507 7.856-.507 12.37v8.805c0 .856.634 1.275 1.497 1.275.824 0 1.465-.412 1.465-1.275V7.286c0-1.14-.824-1.877-2.003-1.877-1.402 0-2.13.475-2.637 1.75L86.83 21.722c-.728 1.813-1.687 4.577-2.003 5.979-.285-1.37-1.339-4.356-1.972-5.916l-5.853-14.69c-.474-1.18-1.148-1.686-2.542-1.686-1.211 0-2.034.729-2.034 1.877v21.998c0 .856.602 1.275 1.465 1.275.886 0 1.496-.412 1.496-1.275v-8.837c0-4.482-.38-10.24-.475-12.306.602 1.972 2.13 6.58 3.05 8.87l4.798 12.052c.443 1.108 1.045 1.496 2.035 1.496 1.013 0 1.591-.38 2.034-1.465l4.926-12.243zm-38.754 3.595l3.595-9.217c.389-.996.717-2.014.982-3.049.275 1.023.605 2.03.99 3.017l3.531 9.25h-9.098zm-.95 2.669h10.998l2.51 6.58c.222.602.73.887 1.307.887.194 0 .387-.031.57-.095.634-.158 1.149-.633 1.149-1.267a1.146 1.146 0 00-.127-.538L59.811 6.906c-.412-1.085-1.243-1.497-2.257-1.497-.982 0-1.782.412-2.194 1.497l-8.655 21.713a1.574 1.574 0 00-.095.538c0 .602.475 1.149 1.109 1.307.205.063.419.095.633.095.539 0 1.014-.253 1.244-.887l2.455-6.557zM35.975 5.718a8.24 8.24 0 00-.087-.617 5.129 5.129 0 00-.15-.602 7.303 7.303 0 00-.206-.586 5.22 5.22 0 00-.27-.563 5.876 5.876 0 00-.688-1.029 5.795 5.795 0 00-.42-.46c-.15-.142-.301-.284-.46-.419a5.839 5.839 0 00-1.029-.689 7.317 7.317 0 00-.562-.27 7.703 7.703 0 00-.586-.213 5.146 5.146 0 00-.602-.15 8.344 8.344 0 00-.618-.095A5.509 5.509 0 0029.672 0H6.335a5.379 5.379 0 00-.617.032A5.518 5.518 0 005.1.12a5.142 5.142 0 00-.602.15c-.198.064-.396.127-.586.206-.193.079-.38.168-.562.27a5.865 5.865 0 00-1.03.688c-.16.132-.313.272-.459.42-.142.15-.285.3-.42.46a5.83 5.83 0 00-.689 1.029 7.11 7.11 0 00-.269.562c-.079.19-.15.388-.213.586-.063.2-.113.404-.151.61-.04.204-.07.41-.087.617A5.379 5.379 0 000 6.336v23.337c-.001.206.01.412.032.617.024.206.047.412.087.618.038.203.088.404.15.602.064.198.127.396.206.586.079.193.169.38.27.562a5.854 5.854 0 00.688 1.03c.132.16.272.313.42.459.15.142.301.285.46.42a5.859 5.859 0 001.028.688c.183.095.373.19.563.27.191.08.387.149.586.206.197.062.398.112.602.15.204.04.41.07.618.087.205.023.411.033.617.032h23.337c.206.001.412-.01.617-.032.206-.024.412-.047.618-.087a5.14 5.14 0 00.602-.15c.198-.064.396-.127.586-.206.193-.079.38-.169.562-.27a5.858 5.858 0 001.03-.688c.16-.132.314-.272.459-.42.143-.15.285-.301.42-.46.133-.159.257-.325.372-.498.116-.17.222-.348.317-.53a7.3 7.3 0 00.269-.563c.155-.384.274-.782.356-1.188.04-.204.07-.41.087-.617.022-.206.033-.412.032-.618V6.336c.01-.206.005-.412-.016-.618m-7.91 14.911L6.247 30.94a.927.927 0 01-.436.104.757.757 0 01-.752-.753.898.898 0 01.182-.506l8.972-9.115H7.832c-.285 0-.555-.435-.555-.752s.27-.752.555-.752h8.433a.759.759 0 01.76.752.73.73 0 01-.205.515l-.024.024-6.779 6.936 14.104-6.723h-2.954a.752.752 0 110-1.504h6.66a.756.756 0 01.744.752.767.767 0 01-.507.712zm2.7-14.38l-8.972 9.115h6.39c.325 0 .554.435.554.752s-.285.752-.554.752H19.75a.759.759 0 01-.76-.752.731.731 0 01.205-.515l.024-.024 6.778-6.937-14.11 6.724h2.953a.752.752 0 010 1.504H8.18a.755.755 0 01-.744-.752.81.81 0 01.507-.72L29.767 5.092a.928.928 0 01.435-.103.757.757 0 01.753.752.995.995 0 01-.19.507z" fill="#0E60C3"/><path d="M28.064 20.63L6.248 30.94a.928.928 0 01-.435.103.757.757 0 01-.753-.753.897.897 0 01.182-.506l8.972-9.115H7.832c-.285 0-.554-.435-.554-.752s.269-.752.554-.752h8.433a.759.759 0 01.76.752.73.73 0 01-.205.515l-.024.024-6.778 6.936L24.12 20.67h-2.954a.752.752 0 110-1.505h6.66a.756.756 0 01.744.753.767.767 0 01-.507.712zm2.7-14.381l-8.971 9.114h6.39c.325 0 .555.436.555.752 0 .317-.286.753-.555.753H19.75a.759.759 0 01-.76-.753.73.73 0 01.205-.514l.024-.024 6.778-6.937-14.11 6.723h2.953a.752.752 0 010 1.505H8.18a.755.755 0 01-.744-.752.81.81 0 01.507-.721L29.767 5.093a.928.928 0 01.436-.103.757.757 0 01.752.752.995.995 0 01-.19.507z" fill="#F6F9FF"/></svg>