<svg width="135" height="40" viewBox="0 0 135 40" fill="none" xmlns="http://www.w3.org/2000/svg">
<g clip-path="url(#clip0_383_10153)">
<path d="M25.3571 15.7857C25.3571 10.7857 23.5714 8.28571 21.2143 6.57143L27.3571 0H23.1429L2.07143 22.3571L2 23.4286C2 28.4286 3.78571 30.9286 6.14286 32.6429L0 39.1429H4.21429L25.2143 16.7857L25.3571 15.7857ZM8.14286 30.4286C6.28571 29.1429 5.07143 27.4286 5 23.7857L19.2143 8.64286C21.0714 9.92857 22.2143 11.6429 22.3571 15.2857L8.14286 30.4286ZM16.2143 37.7143L17.8571 35.0714C20.2857 33.9286 23.3571 31.7143 24.7143 27.4286C25.1429 26.0714 25.3571 22.5 25.3571 20.8571V18.6429L22.3571 21.8571C22.3571 21.9286 22.3571 22.1429 22.3571 22.2857C22.2857 23.5 22 26.6429 21.5714 27.5714C20.5 29.9286 18.5714 31.7857 16.2143 32.7857C15.9286 32.9286 15.7143 33.0714 15.5714 33.3571L13.7143 36.3571L11.8571 33.2857L9.78571 35.5L11.2143 37.8571C11.7857 38.7143 12.7143 39.2143 13.7857 39.2143C14.7143 39.1429 15.7143 38.6429 16.2143 37.7143ZM11.1429 1.35714L9.5 4C7.07143 5.14286 4 7.35714 2.64286 11.6429C2.21429 13 2 16.5714 2 18.2143V20.4286L5 17.2143C5 17.1429 5 16.9286 5 16.7857C5.07143 15.5714 5.35714 12.4286 5.78571 11.5C6.85714 9.14286 8.78571 7.28571 11.1429 6.28571C11.4286 6.14286 11.6429 6 11.7857 5.71429L13.6429 2.85714L15.5 5.92857L17.5714 3.71429L16.1429 1.42857C15.6429 0.5 14.7143 0 13.6429 0C12.6429 0 11.7143 0.5 11.1429 1.35714Z" fill="#28EB9B"/>
<path d="M99.2143 16.3214C100.214 15.8214 101.357 15.6071 102.5 15.6071C104.857 15.6071 107.214 16.6071 107.214 19.75V28.6786H105.643V19.8214C105.643 17.6786 104.214 16.8214 102.357 16.8214C101.286 16.8214 100.214 17.0357 99.2143 17.5357V28.75H97.6429V10.9643H99.2143V16.3214ZM122.643 12.25C122.643 12.4643 122.571 12.6786 122.429 12.8929C122.286 13.0357 122.071 13.1786 121.786 13.1071C121.571 13.1071 121.357 13.0357 121.143 12.8929C121 12.75 120.857 12.4643 120.929 12.25C120.929 12.0357 121 11.8214 121.214 11.6071C121.357 11.4643 121.643 11.3929 121.857 11.3929C122.071 11.3929 122.286 11.4643 122.5 11.6071C122.571 11.8214 122.643 12.0357 122.643 12.25ZM121 15.8214H122.571V28.75H121V15.8214ZM126.214 16.8214C127.286 16.25 128.857 15.6071 130.071 15.6071C132.5 15.6071 134.5 16.6786 134.5 19.75V28.6786H132.929V19.8214C132.929 17.6786 131.786 16.8214 129.857 16.8214C128.786 16.8214 127.357 17.4643 126.429 17.8929V28.6786H124.857V15.8214H126.071L126.214 16.8214ZM40.0715 10.4643H37.3572V28.6071H47.3572V26.1071H40.0715V10.4643ZM50.2857 10.25C49.9286 10.25 49.5715 10.3929 49.2857 10.6071C49 10.8929 48.8572 11.25 48.8572 11.6071C48.8572 11.9643 49 12.3214 49.2857 12.6071C49.5715 12.8929 49.9286 13.0357 50.2857 13.0357C51.0715 13.0357 51.7143 12.3929 51.7143 11.6071C51.7143 10.8214 51.0715 10.25 50.2857 10.25ZM49 15.8214H51.6429V28.6786H49V15.8214ZM66.7857 15.6071C65.3572 15.6071 63.9286 16.0357 62.6429 16.75C61.7858 15.9643 60.6429 15.5357 59.5 15.6071C58.4286 15.6786 57.3572 15.9643 56.3572 16.3929V15.8214H54.0715V28.6786H56.6429V18.3929C57.5 18.1071 58.4286 17.9643 59.2857 17.8929C61.2857 17.8929 61.1429 18.9643 61.1429 19.8214V28.6071H63.7857V20.4643C63.7857 19.8214 63.7858 19.1786 63.6429 18.6071C65 17.9643 65.7143 17.8929 66.4286 17.8929C67.8572 17.8929 68.2143 18.75 68.2143 20.3929V28.6071H70.9286V20.25C70.9286 17.4643 69.5 15.6071 66.7857 15.6071ZM83.0715 23.4643V20.4643C83.0715 17.3929 81.2143 15.6071 78 15.6071C74.7143 15.6071 72.7143 17.4643 72.7143 20.5357V24.8214C72.7143 27.6786 74.5715 28.8929 77.6429 28.8929C79.2858 28.9643 80.9286 28.3929 82.2858 27.3929L80.7143 25.8214C79.8572 26.3929 78.8572 26.6071 77.7857 26.6071C75.5715 26.6071 75.3572 25.3929 75.3572 24.5357V23.4643H83.0715ZM75.2857 20.4643C75.2857 18.1786 76.9286 17.8929 77.9286 17.8929C79.0715 17.8929 80.5 18.3214 80.5 20.3929V21.3214H75.2857V20.4643ZM91.4286 27.5357C88.8572 27.5357 87 26.1071 87 23.25V16.9643C87 14.0357 88.8572 12.6786 91.4286 12.6786C92.9286 12.6786 94.2143 13.25 94.9286 14.1786L95.9286 13.1786C95 11.9643 93.4286 11.1786 91.3572 11.1786C87.8572 11.1786 85.4286 13.1071 85.4286 16.8929V23.1786C85.4286 27.0357 87.8572 28.8929 91.3572 28.8929C93.3572 28.8929 94.8572 28.1786 95.8572 27.0357L94.8572 26.0357C94.0715 27.0357 92.9286 27.5357 91.4286 27.5357ZM113.357 15.6071C112.214 15.5357 111.071 15.8214 110.071 16.3929L111 17.25C111.714 16.9643 112.5 16.8214 113.214 16.8214C116.5 16.8214 116.929 18.3929 117 20.1071C116.071 19.9643 115.071 19.8929 114.071 19.8929C111.357 19.8929 108.786 20.6786 108.786 24.0357C108.786 27.1786 110.714 28.9643 113.357 28.9643C115 28.9643 116.214 28.25 117.214 27.6786V28.75H118.429V20.75C118.571 18.25 118 15.6071 113.357 15.6071ZM117 26.6071C116.143 27.0357 115.357 27.6071 113.643 27.75C111.571 27.8929 110.286 26.3214 110.286 24.1071C110.286 21.75 112.143 21.1071 114.286 21.1071C115.214 21.1071 116.071 21.1786 117 21.3214V26.6071Z" fill="#0E0E10"/>
</g>
<defs>
<clipPath id="clip0_383_10153">
<rect width="134.5" height="39.2143" fill="white"/>
</clipPath>
</defs>
</svg>
