<svg height="100%" viewBox="0 0 498.18 162.86" width="100%" xmlns="http://www.w3.org/2000/svg">
<path d="M40.29 108.79S15.63 82.65 10.18 72.72C3.26 60.11-2.2 46.97.88 28.95 6.17-2.06 36.34-.22 46.17.15c15.9.61 24.54 6.1 24.54 6.1s25.46 13.23 14.73 44.43-45.09 24.24-45.09 24.24l-.07 33.87" style="fill:#00a9e2"></path>
<path d="M48.92 89.84s16.64 17.47 20.32 24.12c4.68 8.44 8.38 17.25 6.38 29.35-3.46 20.83-23.71 19.69-30.31 19.47-10.67-.36-16.49-4.02-16.49-4.02s-17.13-8.8-10.02-29.78c7.11-20.97 30.19-16.41 30.19-16.41l-.06-22.73" style="fill:#37b34a"></path>
<path d="M111.1 95.37h-3.07v13.58h-9.8V70.78h12.43c9.69 0 15.39 3.18 15.39 11.88 0 5.64-2.46 12.7-14.95 12.7Zm.33-16.54h-3.4v8.76h2.85c3.07 0 4.49-.82 4.49-4.98 0-3.18-1.59-3.78-3.94-3.78ZM140.78 108.95c-8.1 0-13.09-5.37-13.09-14.73 0-8.82 5.37-14.95 13.63-14.95 6.95 0 12.92 4 12.92 14.13 0 11.17-6.74 15.55-13.47 15.55Zm.16-23.05c-1.97 0-2.96 1.48-2.96 8.49 0 5.48.33 7.88 3.01 7.88 2.25 0 2.96-2.41 2.96-9.14 0-5.64-.77-7.23-3.01-7.23ZM174.08 108.95V90.88c0-3.07-.99-3.07-2.35-3.07-.71 0-1.81.49-3.12 1.64v19.49h-9.53V90.98c0-3.4-.16-6.46-.88-9.47l8.76-1.48c.22.66.49 1.75.55 2.63 1.86-1.37 4.44-2.68 8.16-2.68 6.63 0 7.94 3.89 7.94 7.78v21.19h-9.53ZM199.58 109.55c-5.31 0-8.87-1.37-8.87-6.84V86.78h-2.3v-6.24h2.3c0-2.79.05-5.15.33-7.01l9.47-1.42c-.33 3.01-.27 5.8-.27 8.43h5.2l-1.26 6.24h-3.94v11.39c0 3.94.55 4.82 2.96 4.82.88 0 1.81-.22 2.41-.55l1.15 5.48c-2.41 1.15-4.82 1.64-7.17 1.64ZM211.33 108.95V81.14l9.53-.88v28.69h-9.53zM238.41 108.95c-7.89 0-12.81-4.98-12.81-14.56s5.04-15.11 13.52-15.11c3.5 0 5.91 1.04 8.71 3.34l-4.38 5.75c-1.09-1.15-2.68-2.08-4-2.08-2.25 0-3.45 1.2-3.45 7.5 0 5.75.6 8.1 3.34 8.1 2.14 0 3.89-1.04 5.2-2.52l4 5.59c-3.01 3.01-6.68 4-10.13 4ZM271.09 108.95c-1.37-.44-3.07-1.92-3.5-2.79-1.37 1.15-3.72 2.35-7.06 2.35-7.01 0-9.69-4.16-9.69-9.2 0-5.37 4.65-9.2 12.54-9.2.38 0 1.31 0 1.59.06v-1.75c0-1.64-.22-2.63-2.3-2.63-3.18 0-5.64 1.15-8.05 2.96l-3.45-5.91c3.5-2.14 8.05-4 12.7-4 5.37 0 9.14 1.81 10.18 5.15.38 1.26.44 2.3.44 4.38l-.11 9.75c0 2.35.22 4.27 2.19 5.53l-5.48 5.31Zm-6.13-12.87h-.38c-3.67 0-4.49 1.53-4.49 3.12s.99 2.74 2.63 2.74c.82 0 1.92-.49 2.25-.93v-4.93Z" style="fill:#58595b"></path>
<path d="M298.97 108.95c-4.33 0-8.71-1.15-12.43-3.39l2.41-4.82c3.4 1.97 6.41 3.12 10.24 3.12 4.65 0 7.45-2.25 7.45-6.02 0-2.79-1.75-4.54-5.64-5.64l-4.05-1.15c-3.45-.99-5.91-2.41-7.34-4.54-1.04-1.53-1.59-3.34-1.59-5.53 0-6.68 5.26-11.23 12.87-11.23 4.33 0 8.65 1.26 11.99 3.61l-2.85 4.43c-3.5-2.08-5.91-2.9-8.93-2.9-3.72 0-6.19 2.03-6.19 5.15 0 2.36 1.31 3.56 5.04 4.65l4.49 1.31c5.48 1.59 9.31 5.09 9.31 10.79 0 6.3-5.09 12.16-14.78 12.16ZM330.61 108.95c-7.5 0-12.21-5.64-12.21-14.51s4.76-14.57 12.1-14.57c7.88 0 12.37 5.86 12.37 14.62s-4.76 14.46-12.27 14.46Zm-.05-24.53c-3.83 0-5.48 2.9-5.48 9.64 0 8.05 2.03 10.4 5.64 10.4s5.53-2.9 5.53-9.86c0-7.83-2.19-10.18-5.69-10.18ZM353.6 108.95c-6.08 0-6.08-5.48-6.08-7.83v-23.6c0-3.78-.16-5.8-.55-8.1l6.19-1.37c.44 1.7.49 4 .49 7.61v23.49c0 3.72.16 4.33.6 4.98.33.49 1.26.77 1.97.44l.99 3.72c-1.09.44-2.25.66-3.61.66ZM380.98 108.95c-1.2-.88-1.92-1.86-2.41-3.45-2.03 2.3-4.71 3.4-7.89 3.4s-5.53-1.1-6.9-2.74c-1.1-1.31-1.53-3.12-1.53-6.57V80.81l5.91-1.09v18.56c0 3.45.49 5.97 4.05 5.97 2.03 0 4.49-1.64 5.42-3.61V80.82l5.8-1.09v20.86c0 4.16 1.7 5.53 1.7 5.53l-4.16 2.85ZM400.16 108.95c-5.37 0-7.23-3.18-7.23-7.12V84.69h-3.07v-4.16h3.07c0-2.35 0-4.76.27-6.84l6.19-1.48c-.27 2.25-.49 5.58-.49 8.32h6.63l-1.59 4.16h-5.09v15.55c0 3.45.77 4.44 3.4 4.44.82 0 1.53-.16 2.57-.55l.77 3.61c-1.81.82-3.56 1.2-5.42 1.2ZM413.36 77.14c-2.19 0-3.89-1.81-3.89-4s1.75-4.05 4-4.05 3.94 1.75 3.94 4.05-1.81 4-4.05 4Zm-3.01 31.81V81.68l6.08-1.09v28.36h-6.08ZM433.37 108.95c-7.5 0-12.21-5.64-12.21-14.51s4.76-14.57 12.1-14.57c7.88 0 12.37 5.86 12.37 14.62s-4.76 14.46-12.27 14.46Zm-.05-24.53c-3.83 0-5.48 2.9-5.48 9.64 0 8.05 2.03 10.4 5.64 10.4s5.53-2.9 5.53-9.86c0-7.83-2.19-10.18-5.69-10.18ZM465.57 108.95v-18.4c0-3.78-.88-4.82-3.18-4.82-1.75 0-4.27 1.31-6.08 3.12v20.1h-5.91V88.58c0-2.9-.27-4.6-1.04-6.57l5.48-1.53c.66 1.26.99 2.46.99 3.94 2.96-2.52 5.53-3.83 8.49-3.83 4.27 0 7.23 2.57 7.23 7.67v20.7h-5.97ZM486.95 109.41c-3.39 0-7.06-1.09-10.62-3.07l2.14-4.33c2.46 1.42 5.86 2.9 8.98 2.9 2.63 0 4.49-1.59 4.49-3.89 0-2.14-1.37-3.23-4.49-3.89l-3.34-.71c-4.16-.88-6.63-3.72-6.63-7.61 0-5.2 4.16-8.82 10.3-8.82 3.78 0 6.79 1.15 9.14 2.41l-1.97 4.16c-2.57-1.37-4.6-2.03-6.79-2.03-2.57 0-4.22 1.42-4.22 3.56 0 1.7.93 2.57 3.72 3.29l3.45.88c5.59 1.42 7.06 4.49 7.06 7.72 0 5.58-4.54 9.42-11.23 9.42Z" style="fill:#808184"></path>
<path d="M215.94 77c-2.75 0-5.01-2.26-5.01-5.07s2.32-5.07 5.13-5.07 4.95 2.26 4.95 5.07-2.26 5.07-5.07 5.07Z" style="fill:#58595b"></path>
</svg>