<svg width="90" height="90" viewBox="0 0 90 90" fill="none" xmlns="http://www.w3.org/2000/svg" xmlns:xlink="http://www.w3.org/1999/xlink">
 <path d="M90 0H0V90H90V0Z" fill="#E1161C">
 </path>
 <path d="M79.1258 43.575C77.3633 43.3875 75.9008 42.7125 75.9008 42.1125C75.9008 41.2125 76.8758 41.0625 77.4758 41.0625C78.0383 41.0625 79.3133 41.175 79.3133 42.375C79.3133 42.4875 79.3883 42.5625 79.4633 42.5625H83.2508C83.3258 42.5625 83.4008 42.4875 83.4008 42.375C83.4008 39.4875 80.9258 37.5 77.4008 37.5C73.9133 37.5 71.4008 39.4875 71.4008 42.225C71.4008 44.5875 74.3633 46.2375 77.1383 46.5375C78.3758 46.6875 79.1258 47.2875 79.1258 47.7375C79.1258 48.4875 78.2258 48.9 77.4008 48.9C77.0633 48.9 75.4133 48.825 75.4133 47.5875C75.4133 47.475 75.3383 47.4 75.2633 47.4H71.4383C71.3633 47.4 71.2883 47.475 71.2883 47.5875C71.2883 50.8125 74.4008 52.4625 77.4383 52.4625C80.4758 52.4625 83.5883 50.775 83.5883 47.5875C83.6258 45.15 81.3758 43.8375 79.1258 43.575Z" fill="white">
 </path>
 <path d="M29.9618 37.5C28.8368 37.5 27.7868 37.8375 26.9243 38.5125V30.9375C26.9243 30.825 26.8493 30.75 26.7368 30.75H23.0243C22.9118 30.75 22.8368 30.825 22.8368 30.9375V51.9C22.8368 52.0125 22.9118 52.0875 23.0243 52.0875H26.7368C26.8493 52.0875 26.9243 52.0125 26.9243 51.9V44.9625C26.9243 43.1625 27.8618 41.325 29.9618 41.325C32.0618 41.325 32.9993 43.1625 32.9993 44.9625V51.8625C32.9993 51.975 33.0743 52.05 33.1868 52.05H36.8993C37.0118 52.05 37.0868 51.975 37.0868 51.8625V45C37.0868 40.725 34.0118 37.5 29.9618 37.5Z" fill="white">
 </path>
 <path d="M49.6496 45C49.6496 47.025 48.0746 48.6375 46.1246 48.6375C44.1746 48.6375 42.5996 46.9875 42.5996 45C42.5996 43.0125 44.1746 41.3625 46.1246 41.3625C48.0746 41.3625 49.6496 42.975 49.6496 45ZM46.0496 37.5C41.8871 37.5 38.5121 40.875 38.5121 45C38.5121 49.125 41.8871 52.5 46.0496 52.5C47.4371 52.5 48.7871 51.7875 49.7621 50.5875V51.9C49.7621 52.0125 49.8371 52.0875 49.9496 52.0875H53.4371C53.5496 52.0875 53.6246 52.0125 53.6246 51.9V45C53.5871 40.875 50.2121 37.5 46.0496 37.5Z" fill="white">
 </path>
 <path d="M66.0746 45C66.0746 47.025 64.4996 48.6375 62.5871 48.6375C60.6746 48.6375 59.0996 46.9875 59.0996 45C59.0996 43.0125 60.6746 41.3625 62.5871 41.3625C64.4996 41.3625 66.0746 42.975 66.0746 45ZM62.5871 37.5C58.4246 37.5 55.0121 40.875 55.0121 45C55.0121 49.125 58.4246 52.5 62.5871 52.5C66.7496 52.5 70.1621 49.125 70.1621 45C70.1621 40.875 66.7496 37.5 62.5871 37.5Z" fill="white">
 </path>
 <path d="M15.3384 48.375C13.3884 49.2 11.1384 48.2625 10.4259 46.275C9.78842 44.5125 10.6134 42.525 12.3009 41.7C13.5759 41.1 15.0009 41.2875 16.0509 42.075C16.1634 42.15 16.2759 42.15 16.3884 42.1125L19.5384 40.7625C19.7259 40.6875 19.8009 40.425 19.6509 40.2375C17.4759 37.65 13.7259 36.7125 10.5009 38.325C7.05092 40.05 5.47592 44.175 6.86342 47.7375C8.43842 51.7125 12.9759 53.5875 16.8759 51.9C20.0259 50.55 21.7509 47.2875 21.3384 44.0625C21.3009 43.8375 21.0759 43.725 20.8884 43.8L17.7384 45.15C17.6259 45.1875 17.5509 45.3 17.5509 45.4125C17.4009 46.6875 16.5759 47.8125 15.3384 48.375Z" fill="white">
 </path>
</svg>