<svg fill="none" height="20" viewBox="0 0 109 20" width="109" xmlns="http://www.w3.org/2000/svg"> <path clip-rule="evenodd" d="M108.976 0V19.6155H104.857V18.3243C103.951 19.3682 102.605 20 100.766 20C97.1688 20 94.2034 16.8404 94.2034 12.7463C94.2034 8.65209 97.1688 5.49247 100.766 5.49247C102.605 5.49247 103.951 6.12429 104.857 7.16822V0H108.976ZM7.22134 5.51975C11.2303 5.51975 14.4703 8.67955 14.4703 12.7463C14.4703 16.8129 11.2303 19.9727 7.22134 19.9727C3.21275 19.9727 0 16.8129 0 12.7463C0 8.67955 3.21275 5.51975 7.22134 5.51975ZM46.1912 5.51975C48.9093 5.51975 51.2161 6.94852 52.2592 9.11949L50.2547 10.2733C49.5684 8.81704 48.0309 7.85514 46.1912 7.85514C43.4455 7.85514 41.3588 9.97118 41.3588 12.7463C41.3588 15.494 43.4455 17.6097 46.1912 17.6097C48.0582 17.6097 49.5684 16.6478 50.3374 15.2194L52.3692 16.4008C51.2161 18.5438 48.882 19.9727 46.1912 19.9727C42.0452 19.9727 38.9699 16.8129 38.9699 12.7463C38.9699 8.67955 42.0452 5.51975 46.1912 5.51975ZM60.3387 5.51982C64.4845 5.51982 67.1755 8.92678 67.1755 12.7739C67.1755 13.1309 67.1481 13.4881 67.0934 13.8453H55.5887C56.0552 16.3183 58.0049 17.7194 60.5583 17.7194C62.4529 17.7194 63.8256 16.8405 64.5123 15.7138L66.5442 16.8677C65.336 18.7364 63.2493 19.9728 60.5034 19.9728C56.0828 19.9728 53.1448 16.8677 53.1448 12.7464C53.1448 8.67962 56.0552 5.51982 60.3387 5.51982ZM23.4912 0.024427V2.33235C21.1025 2.14011 19.867 3.07437 19.867 5.46504V5.87698H23.4912V8.18526H19.867V19.6154H17.4781V8.18526H15.2818V5.87698H17.4781V5.46504C17.4781 1.81056 19.565 -0.250377 23.4912 0.024427ZM32.8261 0.0244451V2.33237C30.4373 2.14013 29.2019 3.07439 29.2019 5.4647V5.87682H32.8261V8.18492H29.2019V19.6156H26.8129V8.18492H24.6166V5.87682H26.8129V5.4647C26.8129 1.81022 28.8998 -0.250359 32.8261 0.0244451ZM36.8891 5.87709V19.6155H34.5005V5.87709H36.8891ZM77.6302 5.60232V10.2733C75.9277 9.99846 73.5117 10.6854 73.5117 13.4054V19.6155H69.393V5.87712H73.5117V8.32254C74.0607 6.4813 75.9004 5.60232 77.6302 5.60232ZM87.6155 5.49249C90.3886 5.49249 92.7499 7.47068 92.7499 11.1801V19.6154H88.6314V11.7844C88.6314 10.081 87.5608 9.28428 86.2426 9.28428C84.7326 9.28428 83.6889 10.1633 83.6889 12.1143V19.6154H79.5705V5.87696H83.6889V7.16823C84.4304 6.15195 85.8034 5.49249 87.6155 5.49249ZM7.22134 7.85514C4.50309 7.85514 2.38894 9.97118 2.38894 12.7463C2.38894 15.5213 4.50309 17.6373 7.22134 17.6373C9.96721 17.6373 12.0814 15.5213 12.0814 12.7463C12.0814 9.97118 9.96721 7.85514 7.22134 7.85514ZM101.589 9.39411C99.6948 9.39411 98.3221 10.6854 98.3221 12.7463C98.3221 14.8071 99.6948 16.0984 101.589 16.0984C103.484 16.0984 104.857 14.8071 104.857 12.7463C104.857 10.6854 103.484 9.39411 101.589 9.39411ZM60.3387 7.773C57.7579 7.773 55.9731 9.36672 55.5887 11.757H64.7593C64.3475 9.03681 62.398 7.773 60.3387 7.773ZM35.7087 0.161667C36.5872 0.161667 37.3011 0.903692 37.3011 1.78285C37.3011 2.66219 36.5872 3.37639 35.7087 3.37639C34.8024 3.37639 34.0887 2.66219 34.0887 1.78285C34.0887 0.903692 34.8024 0.161667 35.7087 0.161667Z" fill="#001B66" fill-rule="evenodd"></path> </svg>