<svg version="1.1" id="Layer_1" xmlns:x="ns_extend;" xmlns:i="ns_ai;" xmlns:graph="ns_graphs;" xmlns="http://www.w3.org/2000/svg" xmlns:xlink="http://www.w3.org/1999/xlink" x="0px" y="0px" viewBox="0 0 188.6 43" style="enable-background:new 0 0 188.6 43;" xml:space="preserve">
 <metadata>
  <sfw xmlns="ns_sfw;">
   <slices>
   </slices>
   <sliceSourceBounds bottomLeftOrigin="true" height="43" width="188.6" x="-19.3" y="-3.6">
   </sliceSourceBounds>
  </sfw>
 </metadata>
 <g>
  <g>
   <g>
    <path d="M15.6,0H0v8.6c0,3.2,2.6,5.8,5.8,5.8V4.9h8.6c3.9,0,5.9,2,5.9,5.4c0,4-2.6,5.5-5.9,5.5H5.8c-3.2,0-5.8,2.6-5.8,5.8v12.1
				h5.8v-13h9.8c6.8,0,10.6-4.2,10.6-10.4S22.4,0,15.6,0z">
    </path>
    <path d="M27.6,26.7c0-4.4,3.5-6.6,9.5-7.1c5-0.4,7-0.9,7-3.1c0-2.3-2-3.6-4.9-3.6c-3.1,0-5.2,1.2-5.4,4.2h-5.2
				c0-4.6,4.3-8.5,10.7-8.5c5.7,0,10.2,2.7,10.2,8.7v12.1h2v4.2h-3.9c-1.7,0-3.1-1.3-3.1-3V30h-0.1c-2,2.8-5.1,4.3-8.5,4.3
				C30.8,34.3,27.6,31.4,27.6,26.7z M37.1,30c3.5,0,7.1-2.5,7.1-7v-1.5c-1.4,1-3.6,1.4-6,1.7c-3.3,0.4-5.1,1.5-5.1,3.6
				S34.8,30,37.1,30z">
    </path>
    <path d="M53.6,38.5h5.6l1.9-4.8L51.5,9.3h5.6l6.4,18.1h0.1L70,9.3h5.6L63.3,40.4c-0.6,1.6-2.2,2.6-3.9,2.6h-5.8V38.5z">
    </path>
    <path d="M83.1,13.1h0.1c1.4-3.1,4.5-4.4,7.6-4.4c6.3,0,8.4,3.7,8.4,8.9v16.1h-5.3V17.8c0-2.8-1.6-4.6-4.4-4.6
				c-4.3,0-6.5,3.2-6.5,7.3v13.2h-5.3V0h5.3V13.1z">
    </path>
    <path d="M103,26.7c0-4.4,3.5-6.6,9.5-7.1c5-0.4,7-0.9,7-3.1c0-2.3-2-3.6-4.9-3.6c-3.1,0-5.2,1.2-5.4,4.2H104
				c0-4.6,4.3-8.5,10.7-8.5c5.7,0,10.2,2.7,10.2,8.7v12.1h2v4.2h-3.9c-1.7,0-3.1-1.3-3.1-3V30h-0.1c-2,2.8-5.1,4.3-8.5,4.3
				C106.2,34.3,103,31.4,103,26.7z M112.5,30c3.5,0,7.1-2.5,7.1-7v-1.5c-1.4,1-3.6,1.4-6,1.7c-3.3,0.4-5.1,1.5-5.1,3.6
				S110.2,30,112.5,30z">
    </path>
    <path d="M127.1,9.3h5.7l5.1,18.8h0.1l4.7-18.8h5.1l4.7,18.8h0.1l5.1-18.8h5.8l-7.7,24.4h-6l-4.4-17.3h-0.1l-4.4,17.3h-6
				L127.1,9.3z">
    </path>
    <path d="M165.8,0h5.3v21.4l10.8-12.1h6.4l-9.8,10.5l10.1,13.9h-6.2l-7.1-10.4l-4.1,4.4v5.9h-5.3V0z">
    </path>
   </g>
  </g>
 </g>
</svg>